<?xml version="1.0" encoding="utf-8"?>
<!-- Generator: Adobe Illustrator 17.0.2, SVG Export Plug-In . SVG Version: 6.00 Build 0)  -->
<!DOCTYPE svg PUBLIC "-//W3C//DTD SVG 1.1//EN" "http://www.w3.org/Graphics/SVG/1.1/DTD/svg11.dtd">
<svg version="1.1" id="Layer_1" xmlns="http://www.w3.org/2000/svg" xmlns:xlink="http://www.w3.org/1999/xlink" x="0px" y="0px"
	  viewBox="0 0 241.25 73" enable-background="new 0 0 241.25 73" xml:space="preserve">
<g id="XMLID_4_">
	<g>
		<path fill="#E54E27" d="M60.105,23.936c7.814,14.786,2.163,33.107-12.623,40.921c-14.786,7.814-33.107,2.163-40.921-12.623
			c-7.814-14.786-2.163-33.107,12.623-40.921C33.97,3.499,52.291,9.15,60.105,23.936z M55.221,35.542l-0.004-0.009
			c-0.18-2.673-0.966-5.276-2.286-7.774c-1.321-2.498-3.094-4.593-5.151-6.261l-4.313,2.279c-5.23-3.687-12.287-4.379-18.324-1.189
			c-8.569,4.529-11.853,15.129-7.324,23.697c4.529,8.569,15.153,11.857,23.721,7.329c6.04-3.192,9.459-9.39,9.357-15.788
			L55.221,35.542z"/>
		<path fill="#353535" d="M55.217,35.533l0.004,0.009l-4.323,2.285c0.102,6.397-3.318,12.595-9.357,15.788
			c-8.568,4.528-19.192,1.24-23.721-7.329c-4.529-8.568-1.245-19.169,7.324-23.697c6.037-3.19,13.094-2.498,18.324,1.189
			l4.313-2.279c2.057,1.667,3.83,3.762,5.151,6.261C54.251,30.257,55.036,32.86,55.217,35.533z"/>
	</g>
	<g>
	</g>
</g>
<path fill="#E8E8E8" d="M100.169,42.678c0,2.058-0.302,3.92-0.906,5.586c-0.605,1.666-1.478,3.087-2.621,4.263
	c-1.144,1.176-2.548,2.082-4.214,2.719c-1.666,0.637-3.561,0.956-5.684,0.956c-0.882,0-1.805-0.041-2.768-0.123
	c-0.964-0.082-1.911-0.188-2.842-0.318c-0.931-0.131-1.821-0.286-2.67-0.465c-0.85-0.179-1.601-0.368-2.254-0.563V21.2l7.301-2.767
	v11.946c0.816-0.359,1.666-0.637,2.548-0.833c0.882-0.196,1.829-0.294,2.842-0.294c1.829,0,3.446,0.318,4.851,0.955
	c1.404,0.637,2.58,1.543,3.528,2.719c0.947,1.176,1.666,2.589,2.156,4.238C99.924,38.815,100.169,40.653,100.169,42.678z
	 M92.721,42.482c0-4.704-1.732-7.056-5.194-7.056c-0.752,0-1.494,0.098-2.229,0.294c-0.735,0.196-1.331,0.441-1.788,0.735v13.279
	c0.359,0.066,0.816,0.122,1.372,0.172c0.555,0.049,1.159,0.073,1.813,0.073c1.992,0,3.495-0.686,4.508-2.058
	C92.214,46.549,92.721,44.736,92.721,42.482z"/>
<path fill="#E8E8E8" d="M110.164,55.564h-7.301V29.791h7.301V55.564z"/>
<path fill="#E8E8E8" d="M136.329,52.33c0,4.214-1.07,7.341-3.209,9.383c-2.14,2.041-5.447,3.062-9.922,3.062
	c-1.568,0-3.136-0.139-4.704-0.417c-1.568-0.278-3.022-0.645-4.361-1.102l1.274-6.125c1.143,0.457,2.343,0.816,3.601,1.078
	c1.257,0.261,2.686,0.392,4.287,0.392c2.09,0,3.568-0.458,4.434-1.372c0.865-0.915,1.298-2.09,1.298-3.528v-0.931
	c-0.784,0.36-1.592,0.629-2.425,0.808c-0.833,0.18-1.739,0.27-2.719,0.27c-3.561,0-6.289-1.053-8.183-3.16
	c-1.895-2.107-2.842-5.055-2.842-8.844c0-1.894,0.294-3.617,0.882-5.169c0.588-1.551,1.445-2.882,2.572-3.993
	c1.127-1.11,2.507-1.968,4.14-2.572c1.633-0.604,3.479-0.906,5.537-0.906c0.882,0,1.788,0.041,2.719,0.123
	c0.931,0.082,1.854,0.188,2.768,0.318c0.914,0.131,1.788,0.286,2.621,0.465c0.833,0.18,1.576,0.368,2.23,0.563V52.33z
	 M120.306,41.845c0,4.084,1.649,6.125,4.949,6.125c0.751,0,1.453-0.098,2.107-0.294c0.653-0.196,1.208-0.424,1.666-0.686V35.328
	c-0.36-0.065-0.784-0.122-1.274-0.171c-0.49-0.049-1.062-0.073-1.715-0.073c-1.928,0-3.365,0.637-4.312,1.911
	C120.779,38.268,120.306,39.885,120.306,41.845z"/>
<path fill="#E8E8E8" d="M164.652,42.678c0,2.058-0.302,3.92-0.906,5.586c-0.605,1.666-1.478,3.087-2.621,4.263
	c-1.144,1.176-2.548,2.082-4.214,2.719c-1.666,0.637-3.561,0.956-5.684,0.956c-0.882,0-1.805-0.041-2.768-0.123
	c-0.964-0.082-1.911-0.188-2.842-0.318c-0.931-0.131-1.821-0.286-2.67-0.465c-0.85-0.179-1.601-0.368-2.254-0.563V20.508
	l7.301-2.767v12.638c0.816-0.359,1.666-0.637,2.548-0.833c0.882-0.196,1.829-0.294,2.842-0.294c1.829,0,3.446,0.318,4.851,0.955
	c1.404,0.637,2.58,1.543,3.528,2.719c0.947,1.176,1.666,2.589,2.156,4.238C164.407,38.815,164.652,40.653,164.652,42.678z
	 M157.205,42.482c0-4.704-1.732-7.056-5.194-7.056c-0.752,0-1.494,0.098-2.229,0.294c-0.735,0.196-1.331,0.441-1.789,0.735v13.279
	c0.359,0.066,0.816,0.122,1.372,0.172c0.555,0.049,1.159,0.073,1.813,0.073c1.992,0,3.495-0.686,4.508-2.058
	C156.698,46.549,157.205,44.736,157.205,42.482z"/>
<path fill="#E8E8E8" d="M177.097,29.105c2.156,0,3.952,0.245,5.39,0.735c1.437,0.49,2.589,1.193,3.454,2.107
	c0.865,0.915,1.478,2.026,1.837,3.332c0.359,1.307,0.539,2.761,0.539,4.361v15.19c-1.046,0.229-2.499,0.498-4.361,0.808
	c-1.862,0.31-4.116,0.465-6.762,0.465c-1.666,0-3.177-0.147-4.532-0.441c-1.356-0.294-2.523-0.776-3.503-1.446
	c-0.98-0.669-1.732-1.543-2.254-2.621c-0.523-1.078-0.784-2.401-0.784-3.969c0-1.502,0.302-2.776,0.906-3.822
	c0.604-1.045,1.413-1.878,2.425-2.499c1.012-0.62,2.172-1.07,3.479-1.347c1.306-0.277,2.662-0.417,4.067-0.417
	c0.947,0,1.788,0.041,2.523,0.122c0.735,0.082,1.331,0.188,1.788,0.318v-0.686c0-1.241-0.376-2.237-1.127-2.989
	c-0.752-0.751-2.058-1.127-3.92-1.127c-1.242,0-2.467,0.09-3.675,0.27c-1.209,0.18-2.254,0.433-3.136,0.759l-0.931-5.88
	c0.424-0.13,0.955-0.269,1.592-0.416s1.331-0.277,2.082-0.392c0.751-0.114,1.543-0.212,2.376-0.294
	C175.407,29.146,176.248,29.105,177.097,29.105z M177.685,50.468c0.718,0,1.404-0.016,2.058-0.049
	c0.653-0.032,1.176-0.081,1.568-0.147v-5.537c-0.294-0.065-0.735-0.13-1.323-0.196c-0.588-0.065-1.127-0.098-1.617-0.098
	c-0.686,0-1.331,0.041-1.935,0.122c-0.605,0.082-1.135,0.237-1.592,0.465c-0.458,0.229-0.817,0.539-1.078,0.931
	c-0.262,0.392-0.392,0.882-0.392,1.47c0,1.144,0.384,1.935,1.151,2.376C175.292,50.248,176.346,50.468,177.685,50.468z"/>
<path fill="#E8E8E8" d="M191.993,30.673c1.241-0.359,2.842-0.694,4.802-1.004c1.96-0.31,4.018-0.466,6.174-0.466
	c2.188,0,4.009,0.286,5.463,0.857c1.453,0.572,2.605,1.38,3.454,2.425c0.849,1.046,1.453,2.287,1.813,3.724
	c0.359,1.438,0.539,3.038,0.539,4.802v14.553h-7.301V41.894c0-2.352-0.311-4.018-0.931-4.998c-0.621-0.98-1.781-1.47-3.479-1.47
	c-0.523,0-1.078,0.025-1.666,0.073c-0.588,0.049-1.111,0.106-1.568,0.171v19.893h-7.301V30.673z"/>
<path fill="#E8E8E8" d="M240.158,52.33c0,4.214-1.07,7.341-3.209,9.383c-2.14,2.041-5.447,3.062-9.922,3.062
	c-1.568,0-3.136-0.139-4.704-0.417c-1.568-0.278-3.022-0.645-4.361-1.102l1.274-6.125c1.143,0.457,2.344,0.816,3.601,1.078
	c1.257,0.261,2.687,0.392,4.287,0.392c2.09,0,3.568-0.458,4.434-1.372c0.865-0.915,1.298-2.09,1.298-3.528v-0.931
	c-0.784,0.36-1.592,0.629-2.425,0.808c-0.833,0.18-1.74,0.27-2.719,0.27c-3.561,0-6.289-1.053-8.183-3.16
	c-1.895-2.107-2.842-5.055-2.842-8.844c0-1.894,0.294-3.617,0.882-5.169c0.588-1.551,1.445-2.882,2.572-3.993
	c1.127-1.11,2.507-1.968,4.14-2.572c1.633-0.604,3.479-0.906,5.537-0.906c0.882,0,1.789,0.041,2.719,0.123
	c0.931,0.082,1.854,0.188,2.768,0.318c0.914,0.131,1.788,0.286,2.621,0.465c0.833,0.18,1.576,0.368,2.229,0.563V52.33z
	 M224.135,41.845c0,4.084,1.649,6.125,4.949,6.125c0.751,0,1.453-0.098,2.107-0.294c0.653-0.196,1.208-0.424,1.666-0.686V35.328
	c-0.36-0.065-0.784-0.122-1.274-0.171c-0.49-0.049-1.062-0.073-1.715-0.073c-1.928,0-3.365,0.637-4.312,1.911
	C224.609,38.268,224.135,39.885,224.135,41.845z"/>
<path fill="#E8E8E8" d="M100.169,42.678c0,2.058-0.302,3.92-0.906,5.586c-0.605,1.666-1.478,3.087-2.621,4.263
	c-1.144,1.176-2.548,2.082-4.214,2.719c-1.666,0.637-3.561,0.956-5.684,0.956c-0.882,0-1.805-0.041-2.768-0.123
	c-0.964-0.082-1.911-0.188-2.842-0.318c-0.931-0.131-1.821-0.286-2.67-0.465c-0.85-0.179-1.601-0.368-2.254-0.563V20.206
	l7.301-2.767v12.94c0.816-0.359,1.666-0.637,2.548-0.833c0.882-0.196,1.829-0.294,2.842-0.294c1.829,0,3.446,0.318,4.851,0.955
	c1.404,0.637,2.58,1.543,3.528,2.719c0.947,1.176,1.666,2.589,2.156,4.238C99.924,38.815,100.169,40.653,100.169,42.678z
	 M92.721,42.482c0-4.704-1.732-7.056-5.194-7.056c-0.752,0-1.494,0.098-2.229,0.294c-0.735,0.196-1.331,0.441-1.788,0.735v13.279
	c0.359,0.066,0.816,0.122,1.372,0.172c0.555,0.049,1.159,0.073,1.813,0.073c1.992,0,3.495-0.686,4.508-2.058
	C92.214,46.549,92.721,44.736,92.721,42.482z"/>
<path fill="#E8E8E8" d="M110.164,55.564h-7.301V29.791h7.301V55.564z"/>
<path fill="#E8E8E8" d="M136.329,52.33c0,4.214-1.07,7.341-3.209,9.383c-2.14,2.041-5.447,3.062-9.922,3.062
	c-1.568,0-3.136-0.139-4.704-0.417c-1.568-0.278-3.022-0.645-4.361-1.102l1.274-6.125c1.143,0.457,2.343,0.816,3.601,1.078
	c1.257,0.261,2.686,0.392,4.287,0.392c2.09,0,3.568-0.458,4.434-1.372c0.865-0.915,1.298-2.09,1.298-3.528v-0.931
	c-0.784,0.36-1.592,0.629-2.425,0.808c-0.833,0.18-1.739,0.27-2.719,0.27c-3.561,0-6.289-1.053-8.183-3.16
	c-1.895-2.107-2.842-5.055-2.842-8.844c0-1.894,0.294-3.617,0.882-5.169c0.588-1.551,1.445-2.882,2.572-3.993
	c1.127-1.11,2.507-1.968,4.14-2.572c1.633-0.604,3.479-0.906,5.537-0.906c0.882,0,1.788,0.041,2.719,0.123
	c0.931,0.082,1.854,0.188,2.768,0.318c0.914,0.131,1.788,0.286,2.621,0.465c0.833,0.18,1.576,0.368,2.23,0.563V52.33z
	 M120.306,41.845c0,4.084,1.649,6.125,4.949,6.125c0.751,0,1.453-0.098,2.107-0.294c0.653-0.196,1.208-0.424,1.666-0.686V35.328
	c-0.36-0.065-0.784-0.122-1.274-0.171c-0.49-0.049-1.062-0.073-1.715-0.073c-1.928,0-3.365,0.637-4.312,1.911
	C120.779,38.268,120.306,39.885,120.306,41.845z"/>
<path fill="#E8E8E8" d="M164.652,42.678c0,2.058-0.302,3.92-0.906,5.586c-0.605,1.666-1.478,3.087-2.621,4.263
	c-1.144,1.176-2.548,2.082-4.214,2.719c-1.666,0.637-3.561,0.956-5.684,0.956c-0.882,0-1.805-0.041-2.768-0.123
	c-0.964-0.082-1.911-0.188-2.842-0.318c-0.931-0.131-1.821-0.286-2.67-0.465c-0.85-0.179-1.601-0.368-2.254-0.563V20.206
	l7.301-2.767v12.94c0.816-0.359,1.666-0.637,2.548-0.833c0.882-0.196,1.829-0.294,2.842-0.294c1.829,0,3.446,0.318,4.851,0.955
	c1.404,0.637,2.58,1.543,3.528,2.719c0.947,1.176,1.666,2.589,2.156,4.238C164.407,38.815,164.652,40.653,164.652,42.678z
	 M157.205,42.482c0-4.704-1.732-7.056-5.194-7.056c-0.752,0-1.494,0.098-2.229,0.294c-0.735,0.196-1.331,0.441-1.789,0.735v13.279
	c0.359,0.066,0.816,0.122,1.372,0.172c0.555,0.049,1.159,0.073,1.813,0.073c1.992,0,3.495-0.686,4.508-2.058
	C156.698,46.549,157.205,44.736,157.205,42.482z"/>
<path fill="#E8E8E8" d="M177.098,29.105c2.156,0,3.952,0.245,5.39,0.735c1.437,0.49,2.589,1.193,3.454,2.107
	c0.865,0.915,1.478,2.026,1.837,3.332c0.359,1.307,0.539,2.761,0.539,4.361v15.19c-1.046,0.229-2.499,0.498-4.361,0.808
	c-1.862,0.31-4.116,0.465-6.762,0.465c-1.666,0-3.177-0.147-4.532-0.441c-1.356-0.294-2.523-0.776-3.503-1.446
	c-0.98-0.669-1.732-1.543-2.254-2.621c-0.523-1.078-0.784-2.401-0.784-3.969c0-1.502,0.302-2.776,0.906-3.822
	c0.604-1.045,1.413-1.878,2.425-2.499c1.012-0.62,2.172-1.07,3.479-1.347c1.306-0.277,2.662-0.417,4.067-0.417
	c0.947,0,1.788,0.041,2.523,0.122c0.735,0.082,1.331,0.188,1.788,0.318v-0.686c0-1.241-0.376-2.237-1.127-2.989
	c-0.752-0.751-2.058-1.127-3.92-1.127c-1.242,0-2.467,0.09-3.675,0.27c-1.209,0.18-2.254,0.433-3.136,0.759l-0.931-5.88
	c0.424-0.13,0.956-0.269,1.592-0.416c0.637-0.147,1.331-0.277,2.082-0.392c0.751-0.114,1.543-0.212,2.376-0.294
	C175.407,29.146,176.248,29.105,177.098,29.105z M177.686,50.468c0.718,0,1.404-0.016,2.058-0.049
	c0.653-0.032,1.176-0.081,1.568-0.147v-5.537c-0.294-0.065-0.735-0.13-1.323-0.196c-0.588-0.065-1.127-0.098-1.617-0.098
	c-0.686,0-1.331,0.041-1.935,0.122c-0.605,0.082-1.135,0.237-1.592,0.465c-0.458,0.229-0.817,0.539-1.078,0.931
	c-0.262,0.392-0.392,0.882-0.392,1.47c0,1.144,0.384,1.935,1.151,2.376C175.292,50.248,176.346,50.468,177.686,50.468z"/>
<path fill="#E8E8E8" d="M191.993,30.673c1.241-0.359,2.842-0.694,4.802-1.004c1.96-0.31,4.018-0.466,6.174-0.466
	c2.188,0,4.009,0.286,5.463,0.857c1.453,0.572,2.605,1.38,3.454,2.425c0.849,1.046,1.453,2.287,1.813,3.724
	c0.359,1.438,0.539,3.038,0.539,4.802v14.553h-7.301V41.894c0-2.352-0.311-4.018-0.931-4.998c-0.621-0.98-1.781-1.47-3.479-1.47
	c-0.523,0-1.078,0.025-1.666,0.073c-0.588,0.049-1.111,0.106-1.568,0.171v19.893h-7.301V30.673z"/>
<path fill="#E8E8E8" d="M240.158,52.33c0,4.214-1.07,7.341-3.209,9.383c-2.14,2.041-5.447,3.062-9.922,3.062
	c-1.568,0-3.136-0.139-4.704-0.417c-1.568-0.278-3.022-0.645-4.361-1.102l1.274-6.125c1.143,0.457,2.344,0.816,3.601,1.078
	c1.257,0.261,2.687,0.392,4.287,0.392c2.09,0,3.568-0.458,4.434-1.372c0.865-0.915,1.298-2.09,1.298-3.528v-0.931
	c-0.784,0.36-1.592,0.629-2.425,0.808c-0.833,0.18-1.74,0.27-2.719,0.27c-3.561,0-6.289-1.053-8.183-3.16
	c-1.895-2.107-2.842-5.055-2.842-8.844c0-1.894,0.294-3.617,0.882-5.169c0.588-1.551,1.445-2.882,2.572-3.993
	c1.127-1.11,2.507-1.968,4.14-2.572c1.633-0.604,3.479-0.906,5.537-0.906c0.882,0,1.789,0.041,2.719,0.123
	c0.931,0.082,1.854,0.188,2.768,0.318c0.914,0.131,1.788,0.286,2.621,0.465c0.833,0.18,1.576,0.368,2.229,0.563V52.33z
	 M224.136,41.845c0,4.084,1.649,6.125,4.949,6.125c0.751,0,1.453-0.098,2.107-0.294c0.653-0.196,1.208-0.424,1.666-0.686V35.328
	c-0.36-0.065-0.784-0.122-1.274-0.171c-0.49-0.049-1.062-0.073-1.715-0.073c-1.928,0-3.365,0.637-4.312,1.911
	C224.609,38.268,224.136,39.885,224.136,41.845z"/>
<polygon fill="#E54E27" points="106.51,1.377 109.949,8.345 117.638,9.462 112.074,14.886 113.388,22.544 106.51,18.928 
	99.633,22.544 100.946,14.886 95.382,9.462 103.072,8.345 "/>
</svg>
