<?xml version="1.0" encoding="utf-8"?>
<!-- Generator: Adobe Illustrator 17.0.2, SVG Export Plug-In . SVG Version: 6.00 Build 0)  -->
<!DOCTYPE svg PUBLIC "-//W3C//DTD SVG 1.1//EN" "http://www.w3.org/Graphics/SVG/1.1/DTD/svg11.dtd">
<svg version="1.1" id="Layer_1" xmlns="http://www.w3.org/2000/svg" xmlns:xlink="http://www.w3.org/1999/xlink" x="0px" y="0px"
	 width="454.563px" height="131px" viewBox="0 0 454.563 131" enable-background="new 0 0 454.563 131" xml:space="preserve">
<g id="XMLID_1_">
	<g>
		<path fill="#414142" d="M76.817,46.867l7.907-4.179c3.771,3.057,7.022,6.898,9.444,11.479c2.421,4.581,3.861,9.354,4.192,14.254
			l0.008,0.016l-7.927,4.19c0.186,11.73-6.083,23.094-17.156,28.947c-15.709,8.302-35.189,2.273-43.492-13.438
			C21.489,72.427,27.51,52.99,43.221,44.687C54.289,38.839,67.229,40.106,76.817,46.867z"/>
		<path fill="#E54E27" d="M32.295,24.015c27.109-14.328,60.701-3.966,75.028,23.144c14.328,27.109,3.966,60.701-23.144,75.028
			c-27.109,14.328-60.701,3.966-75.028-23.144C-5.176,71.933,5.186,38.341,32.295,24.015z M84.724,42.688l-7.907,4.179
			c-9.588-6.761-22.528-8.028-33.596-2.18C27.51,52.99,21.489,72.427,29.792,88.136c8.303,15.711,27.783,21.74,43.492,13.438
			c11.074-5.853,17.343-17.217,17.156-28.947l7.927-4.19l-0.008-0.016c-0.331-4.9-1.771-9.673-4.192-14.254
			C91.746,49.586,88.496,45.745,84.724,42.688z"/>
	</g>
</g>
<path fill="#414142" d="M193.712,83.84c0,3.835-0.564,7.304-1.689,10.408c-1.127,3.104-2.755,5.752-4.885,7.943
	c-2.131,2.191-4.748,3.88-7.852,5.067c-3.104,1.187-6.635,1.78-10.591,1.78c-1.643,0-3.364-0.077-5.159-0.228
	c-1.796-0.153-3.561-0.351-5.295-0.593c-1.735-0.244-3.394-0.532-4.976-0.867c-1.583-0.334-2.983-0.685-4.2-1.05V43.819
	l13.604-5.155v22.26c1.521-0.669,3.104-1.187,4.748-1.552c1.643-0.365,3.408-0.548,5.296-0.548c3.408,0,6.421,0.593,9.039,1.78
	c2.616,1.187,4.808,2.876,6.574,5.067c1.765,2.191,3.104,4.825,4.017,7.898C193.255,76.643,193.712,80.067,193.712,83.84z
	 M179.834,83.475c0-8.765-3.227-13.147-9.678-13.147c-1.401,0-2.785,0.183-4.154,0.548c-1.369,0.365-2.481,0.822-3.333,1.37v24.743
	c0.669,0.123,1.521,0.228,2.556,0.32c1.034,0.091,2.16,0.137,3.378,0.137c3.712,0,6.512-1.278,8.4-3.835
	C178.89,91.053,179.834,87.675,179.834,83.475z"/>
<path fill="#414142" d="M212.337,107.853h-13.604V59.828h13.604V107.853z"/>
<path fill="#414142" d="M261.091,101.827c0,7.852-1.995,13.68-5.98,17.484c-3.987,3.803-10.15,5.706-18.489,5.706
	c-2.922,0-5.843-0.26-8.765-0.776c-2.922-0.518-5.631-1.202-8.126-2.054l2.374-11.413c2.13,0.852,4.367,1.521,6.711,2.009
	c2.343,0.486,5.006,0.73,7.989,0.73c3.895,0,6.649-0.853,8.263-2.556c1.612-1.705,2.419-3.895,2.419-6.574v-1.735
	c-1.461,0.671-2.967,1.173-4.519,1.506c-1.552,0.335-3.241,0.502-5.067,0.502c-6.635,0-11.718-1.963-15.247-5.889
	c-3.531-3.926-5.296-9.418-5.296-16.48c0-3.529,0.548-6.741,1.643-9.632c1.096-2.89,2.693-5.371,4.793-7.441
	c2.1-2.069,4.671-3.666,7.715-4.793c3.043-1.126,6.483-1.689,10.317-1.689c1.643,0,3.332,0.077,5.067,0.228
	c1.735,0.153,3.454,0.351,5.159,0.593c1.703,0.244,3.333,0.534,4.885,0.867c1.552,0.335,2.936,0.685,4.154,1.05V101.827z
	 M231.235,82.288c0,7.609,3.073,11.413,9.221,11.413c1.4,0,2.708-0.183,3.926-0.548c1.217-0.365,2.251-0.79,3.104-1.278v-21.73
	c-0.67-0.121-1.461-0.228-2.374-0.32c-0.913-0.091-1.979-0.137-3.196-0.137c-3.592,0-6.27,1.187-8.034,3.561
	C232.116,75.623,231.235,78.636,231.235,82.288z"/>
<path fill="#414142" d="M313.868,83.84c0,3.835-0.563,7.304-1.689,10.408c-1.127,3.104-2.755,5.752-4.885,7.943
	c-2.131,2.191-4.748,3.88-7.852,5.067c-3.104,1.187-6.635,1.78-10.591,1.78c-1.643,0-3.364-0.077-5.159-0.228
	c-1.796-0.153-3.561-0.351-5.295-0.593c-1.735-0.244-3.394-0.532-4.976-0.867c-1.584-0.334-2.983-0.685-4.2-1.05V42.53l13.604-5.155
	v23.549c1.521-0.669,3.104-1.187,4.748-1.552c1.643-0.365,3.408-0.548,5.295-0.548c3.408,0,6.421,0.593,9.039,1.78
	c2.616,1.187,4.808,2.876,6.574,5.067c1.765,2.191,3.104,4.825,4.017,7.898C313.412,76.643,313.868,80.067,313.868,83.84z
	 M299.99,83.475c0-8.765-3.227-13.147-9.678-13.147c-1.401,0-2.785,0.183-4.154,0.548c-1.37,0.365-2.481,0.822-3.333,1.37v24.743
	c0.669,0.123,1.521,0.228,2.556,0.32c1.034,0.091,2.16,0.137,3.378,0.137c3.712,0,6.512-1.278,8.4-3.835
	C299.046,91.053,299.99,87.675,299.99,83.475z"/>
<path fill="#414142" d="M337.058,58.549c4.017,0,7.364,0.456,10.043,1.37c2.678,0.913,4.823,2.223,6.437,3.926
	c1.612,1.705,2.753,3.775,3.424,6.209c0.669,2.435,1.004,5.144,1.004,8.126v28.304c-1.949,0.427-4.656,0.929-8.126,1.506
	c-3.469,0.578-7.669,0.867-12.6,0.867c-3.104,0-5.92-0.274-8.445-0.822c-2.527-0.548-4.702-1.445-6.528-2.694
	c-1.826-1.247-3.227-2.876-4.2-4.885c-0.974-2.009-1.461-4.474-1.461-7.395c0-2.799,0.562-5.173,1.689-7.122
	c1.126-1.947,2.632-3.499,4.519-4.656c1.886-1.156,4.047-1.993,6.483-2.511c2.434-0.516,4.96-0.776,7.578-0.776
	c1.765,0,3.332,0.077,4.702,0.228c1.369,0.153,2.479,0.351,3.332,0.593V77.54c0-2.313-0.7-4.168-2.1-5.569
	c-1.401-1.399-3.835-2.1-7.304-2.1c-2.314,0-4.596,0.168-6.848,0.502c-2.253,0.335-4.2,0.807-5.843,1.415l-1.735-10.956
	c0.79-0.243,1.78-0.502,2.967-0.776c1.187-0.274,2.479-0.516,3.88-0.73c1.399-0.213,2.876-0.395,4.428-0.548
	C333.908,58.627,335.474,58.549,337.058,58.549z M338.154,98.357c1.338,0,2.616-0.03,3.835-0.091
	c1.217-0.06,2.191-0.151,2.921-0.274V87.675c-0.548-0.121-1.369-0.243-2.465-0.365c-1.096-0.121-2.1-0.183-3.013-0.183
	c-1.278,0-2.481,0.077-3.606,0.228c-1.127,0.153-2.116,0.442-2.967,0.867c-0.853,0.427-1.522,1.004-2.009,1.735
	c-0.488,0.731-0.731,1.644-0.731,2.739c0,2.131,0.715,3.606,2.146,4.428C333.694,97.946,335.657,98.357,338.154,98.357z"/>
<path fill="#414142" d="M364.813,61.471c2.313-0.669,5.296-1.293,8.948-1.872c3.652-0.578,7.487-0.867,11.504-0.867
	c4.077,0,7.471,0.534,10.18,1.598c2.708,1.066,4.853,2.572,6.437,4.52c1.582,1.949,2.708,4.261,3.378,6.939
	c0.669,2.679,1.004,5.661,1.004,8.948v27.117H392.66V82.379c0-4.383-0.579-7.487-1.735-9.313c-1.157-1.826-3.318-2.739-6.482-2.739
	c-0.974,0-2.009,0.046-3.104,0.137c-1.096,0.091-2.07,0.198-2.922,0.32v37.069h-13.604V61.471z"/>
<path fill="#414142" d="M454.562,101.827c0,7.852-1.994,13.68-5.98,17.484c-3.987,3.803-10.15,5.706-18.489,5.706
	c-2.922,0-5.843-0.26-8.765-0.776c-2.922-0.518-5.631-1.202-8.126-2.054l2.374-11.413c2.13,0.852,4.367,1.521,6.711,2.009
	c2.342,0.486,5.006,0.73,7.989,0.73c3.895,0,6.649-0.853,8.263-2.556c1.612-1.705,2.42-3.895,2.42-6.574v-1.735
	c-1.461,0.671-2.967,1.173-4.519,1.506c-1.552,0.335-3.241,0.502-5.067,0.502c-6.635,0-11.718-1.963-15.247-5.889
	c-3.531-3.926-5.296-9.418-5.296-16.48c0-3.529,0.548-6.741,1.643-9.632c1.096-2.89,2.693-5.371,4.793-7.441
	c2.1-2.069,4.671-3.666,7.715-4.793c3.043-1.126,6.482-1.689,10.317-1.689c1.643,0,3.333,0.077,5.067,0.228
	c1.735,0.153,3.454,0.351,5.159,0.593c1.703,0.244,3.333,0.534,4.885,0.867c1.552,0.335,2.936,0.685,4.154,1.05V101.827z
	 M424.707,82.288c0,7.609,3.073,11.413,9.221,11.413c1.399,0,2.708-0.183,3.926-0.548c1.217-0.365,2.251-0.79,3.104-1.278v-21.73
	c-0.671-0.121-1.461-0.228-2.374-0.32c-0.913-0.091-1.979-0.137-3.196-0.137c-3.592,0-6.27,1.187-8.035,3.561
	C425.588,75.623,424.707,78.636,424.707,82.288z"/>
<path fill="#414142" d="M193.712,83.84c0,3.835-0.564,7.304-1.689,10.408c-1.127,3.104-2.755,5.752-4.885,7.943
	c-2.131,2.191-4.748,3.88-7.852,5.067c-3.104,1.187-6.635,1.78-10.591,1.78c-1.643,0-3.364-0.077-5.159-0.228
	c-1.796-0.153-3.561-0.351-5.295-0.593c-1.735-0.244-3.394-0.532-4.976-0.867c-1.583-0.334-2.983-0.685-4.2-1.05V41.968
	l13.604-5.155v24.111c1.521-0.669,3.104-1.187,4.748-1.552c1.643-0.365,3.408-0.548,5.296-0.548c3.408,0,6.421,0.593,9.039,1.78
	c2.616,1.187,4.808,2.876,6.574,5.067c1.765,2.191,3.104,4.825,4.017,7.898C193.256,76.643,193.712,80.067,193.712,83.84z
	 M179.834,83.475c0-8.765-3.227-13.147-9.678-13.147c-1.401,0-2.785,0.183-4.154,0.548c-1.369,0.365-2.481,0.822-3.333,1.37v24.743
	c0.669,0.123,1.521,0.228,2.556,0.32c1.034,0.091,2.16,0.137,3.378,0.137c3.712,0,6.512-1.278,8.4-3.835
	C178.89,91.053,179.834,87.675,179.834,83.475z"/>
<path fill="#414142" d="M212.337,107.853h-13.604V59.828h13.604V107.853z"/>
<path fill="#414142" d="M261.091,101.827c0,7.852-1.995,13.68-5.98,17.484c-3.987,3.803-10.15,5.706-18.489,5.706
	c-2.922,0-5.843-0.26-8.765-0.776c-2.922-0.518-5.631-1.202-8.126-2.054l2.374-11.413c2.13,0.852,4.367,1.521,6.711,2.009
	c2.342,0.486,5.006,0.73,7.989,0.73c3.895,0,6.649-0.853,8.263-2.556c1.612-1.705,2.419-3.895,2.419-6.574v-1.735
	c-1.461,0.671-2.967,1.173-4.519,1.506c-1.552,0.335-3.241,0.502-5.067,0.502c-6.635,0-11.718-1.963-15.247-5.889
	c-3.531-3.926-5.296-9.418-5.296-16.48c0-3.529,0.548-6.741,1.643-9.632c1.096-2.89,2.693-5.371,4.793-7.441
	c2.1-2.069,4.671-3.666,7.715-4.793c3.043-1.126,6.483-1.689,10.317-1.689c1.643,0,3.332,0.077,5.067,0.228
	c1.735,0.153,3.454,0.351,5.159,0.593c1.703,0.244,3.333,0.534,4.885,0.867c1.552,0.335,2.936,0.685,4.154,1.05V101.827z
	 M231.235,82.288c0,7.609,3.073,11.413,9.221,11.413c1.4,0,2.708-0.183,3.926-0.548c1.217-0.365,2.251-0.79,3.104-1.278v-21.73
	c-0.67-0.121-1.461-0.228-2.374-0.32c-0.913-0.091-1.979-0.137-3.196-0.137c-3.592,0-6.27,1.187-8.034,3.561
	C232.117,75.623,231.235,78.636,231.235,82.288z"/>
<path fill="#414142" d="M313.868,83.84c0,3.835-0.563,7.304-1.689,10.408c-1.127,3.104-2.755,5.752-4.885,7.943
	c-2.131,2.191-4.748,3.88-7.852,5.067c-3.104,1.187-6.635,1.78-10.591,1.78c-1.643,0-3.364-0.077-5.159-0.228
	c-1.796-0.153-3.561-0.351-5.295-0.593c-1.735-0.244-3.394-0.532-4.976-0.867c-1.584-0.334-2.983-0.685-4.2-1.05V41.968
	l13.604-5.155v24.111c1.521-0.669,3.104-1.187,4.748-1.552c1.643-0.365,3.408-0.548,5.296-0.548c3.408,0,6.421,0.593,9.039,1.78
	c2.616,1.187,4.808,2.876,6.574,5.067c1.765,2.191,3.104,4.825,4.017,7.898C313.412,76.643,313.868,80.067,313.868,83.84z
	 M299.991,83.475c0-8.765-3.227-13.147-9.678-13.147c-1.401,0-2.785,0.183-4.154,0.548c-1.37,0.365-2.481,0.822-3.333,1.37v24.743
	c0.669,0.123,1.521,0.228,2.556,0.32c1.034,0.091,2.16,0.137,3.378,0.137c3.712,0,6.512-1.278,8.4-3.835
	C299.046,91.053,299.991,87.675,299.991,83.475z"/>
<path fill="#414142" d="M337.058,58.549c4.017,0,7.364,0.456,10.043,1.37c2.678,0.913,4.823,2.223,6.437,3.926
	c1.612,1.705,2.753,3.775,3.424,6.209c0.669,2.435,1.004,5.144,1.004,8.126v28.304c-1.949,0.427-4.656,0.929-8.126,1.506
	c-3.469,0.578-7.669,0.867-12.6,0.867c-3.104,0-5.92-0.274-8.445-0.822c-2.527-0.548-4.702-1.445-6.528-2.694
	c-1.826-1.247-3.227-2.876-4.2-4.885c-0.974-2.009-1.461-4.474-1.461-7.395c0-2.799,0.562-5.173,1.689-7.122
	c1.126-1.947,2.632-3.499,4.519-4.656c1.886-1.156,4.047-1.993,6.483-2.511c2.434-0.516,4.96-0.776,7.578-0.776
	c1.765,0,3.332,0.077,4.702,0.228c1.369,0.153,2.479,0.351,3.332,0.593V77.54c0-2.313-0.7-4.168-2.1-5.569
	c-1.401-1.399-3.835-2.1-7.304-2.1c-2.314,0-4.596,0.168-6.848,0.502c-2.253,0.335-4.2,0.807-5.843,1.415l-1.735-10.956
	c0.79-0.243,1.78-0.502,2.967-0.776c1.187-0.274,2.479-0.516,3.88-0.73c1.399-0.213,2.876-0.395,4.428-0.548
	C333.908,58.627,335.475,58.549,337.058,58.549z M338.154,98.357c1.338,0,2.616-0.03,3.835-0.091
	c1.217-0.06,2.191-0.151,2.922-0.274V87.675c-0.548-0.121-1.369-0.243-2.465-0.365c-1.096-0.121-2.1-0.183-3.013-0.183
	c-1.278,0-2.481,0.077-3.606,0.228c-1.127,0.153-2.116,0.442-2.967,0.867c-0.853,0.427-1.522,1.004-2.009,1.735
	c-0.488,0.731-0.731,1.644-0.731,2.739c0,2.131,0.715,3.606,2.146,4.428C333.694,97.946,335.657,98.357,338.154,98.357z"/>
<path fill="#414142" d="M364.813,61.471c2.313-0.669,5.296-1.293,8.948-1.872c3.652-0.578,7.487-0.867,11.504-0.867
	c4.077,0,7.471,0.534,10.18,1.598c2.708,1.066,4.853,2.572,6.437,4.52c1.582,1.949,2.708,4.261,3.378,6.939
	c0.669,2.679,1.004,5.661,1.004,8.948v27.117h-13.604V82.379c0-4.383-0.579-7.487-1.735-9.313c-1.157-1.826-3.318-2.739-6.482-2.739
	c-0.974,0-2.009,0.046-3.104,0.137c-1.096,0.091-2.07,0.198-2.922,0.32v37.069h-13.604V61.471z"/>
<path fill="#414142" d="M454.563,101.827c0,7.852-1.994,13.68-5.98,17.484c-3.987,3.803-10.15,5.706-18.489,5.706
	c-2.922,0-5.843-0.26-8.765-0.776c-2.922-0.518-5.631-1.202-8.126-2.054l2.374-11.413c2.13,0.852,4.367,1.521,6.711,2.009
	c2.342,0.486,5.006,0.73,7.989,0.73c3.895,0,6.649-0.853,8.263-2.556c1.612-1.705,2.42-3.895,2.42-6.574v-1.735
	c-1.461,0.671-2.967,1.173-4.519,1.506c-1.552,0.335-3.241,0.502-5.067,0.502c-6.635,0-11.718-1.963-15.247-5.889
	c-3.531-3.926-5.296-9.418-5.296-16.48c0-3.529,0.548-6.741,1.643-9.632c1.096-2.89,2.693-5.371,4.793-7.441
	c2.1-2.069,4.671-3.666,7.715-4.793c3.043-1.126,6.482-1.689,10.317-1.689c1.644,0,3.333,0.077,5.067,0.228
	c1.735,0.153,3.454,0.351,5.159,0.593c1.703,0.244,3.332,0.534,4.885,0.867c1.552,0.335,2.936,0.685,4.154,1.05V101.827z
	 M424.707,82.288c0,7.609,3.073,11.413,9.221,11.413c1.399,0,2.708-0.183,3.926-0.548c1.217-0.365,2.251-0.79,3.104-1.278v-21.73
	c-0.671-0.121-1.461-0.228-2.374-0.32c-0.913-0.091-1.979-0.137-3.196-0.137c-3.592,0-6.27,1.187-8.035,3.561
	C425.589,75.623,424.707,78.636,424.707,82.288z"/>
<polygon fill="#E54E27" points="205.529,2.359 212.365,16.211 227.653,18.433 216.591,29.215 219.202,44.441 205.529,37.252 
	191.856,44.441 194.467,29.215 183.405,18.433 198.692,16.211 "/>
</svg>
