<?xml version="1.0" encoding="utf-8"?>
<!-- Generator: Adobe Illustrator 17.0.2, SVG Export Plug-In . SVG Version: 6.00 Build 0)  -->
<!DOCTYPE svg PUBLIC "-//W3C//DTD SVG 1.1//EN" "http://www.w3.org/Graphics/SVG/1.1/DTD/svg11.dtd">
<svg version="1.1" id="Layer_1" xmlns="http://www.w3.org/2000/svg" xmlns:xlink="http://www.w3.org/1999/xlink" x="0px" y="0px"
	 width="100px" height="100px" viewBox="0 0 100 100" enable-background="new 0 0 100 100" xml:space="preserve">
<g>
	<path fill="#414142" d="M97.858,41.43h-15.06V26.126c0-1.168-0.932-2.117-2.081-2.117h-4.288c-1.153,0-2.087,0.949-2.087,2.117
		V41.43H59.283c-1.147,0-2.083,0.951-2.083,2.119v4.36c0,1.17,0.936,2.117,2.083,2.117h15.059v15.309
		c0,1.17,0.934,2.117,2.087,2.117h4.288c1.149,0,2.081-0.947,2.081-2.117V50.027h15.06c1.147,0,2.083-0.947,2.083-2.117v-4.36
		C99.941,42.381,99.005,41.43,97.858,41.43z"/>
	<path fill="#414142" d="M47.248,54.848C44.081,52.57,41.2,49.227,41.15,48.2c0-1.872,0.164-2.766,4.291-6.033
		c5.339-4.249,8.278-9.832,8.278-15.731c0-5.349-1.607-10.101-4.346-13.438h2.122c0.44,0,0.869-0.139,1.224-0.4l5.924-4.362
		c0.736-0.535,1.043-1.492,0.762-2.366c-0.28-0.872-1.077-1.467-1.981-1.467H30.93c-2.9,0-5.844,0.519-8.736,1.53
		C12.538,9.319,5.788,17.681,5.788,26.265c0,12.162,9.27,21.382,21.661,21.672c-0.243,0.963-0.364,1.912-0.364,2.844
		c0,1.874,0.468,3.65,1.429,5.365c-0.111,0.002-0.221,0.002-0.341,0.002c-11.811,0-22.474,5.89-26.523,14.658
		c-1.055,2.279-1.592,4.583-1.592,6.859c0,2.213,0.56,4.344,1.656,6.344c2.543,4.625,8.008,8.215,15.39,10.109
		c3.812,0.979,7.908,1.479,12.16,1.479c3.822,0,7.463-0.504,10.833-1.494c10.502-3.098,17.29-10.955,17.29-20.027
		C57.388,65.371,54.637,60.162,47.248,54.848z M13.785,74.774c0-6.332,7.914-11.886,16.933-11.886l0.243,0.002
		c1.962,0.022,3.876,0.318,5.684,0.879c0.617,0.434,1.216,0.848,1.789,1.244c4.178,2.893,6.936,4.804,7.706,7.87
		c0.18,0.77,0.27,1.542,0.27,2.29c0,7.884-5.785,11.882-17.197,11.882C20.561,87.056,13.785,81.661,13.785,74.774z M21.992,14.952
		c1.41-1.636,3.256-2.499,5.329-2.499l0.235,0.004c5.856,0.175,11.459,6.808,12.491,14.785c0.578,4.467-0.399,8.666-2.61,11.227
		c-1.412,1.638-3.232,2.501-5.39,2.501c0,0,0,0-0.004,0H31.95c-5.736-0.177-11.459-7.064-12.483-15.032
		C18.889,21.485,19.811,17.482,21.992,14.952z"/>
</g>
</svg>
