<?xml version="1.0" encoding="utf-8"?>
<!-- Generator: Adobe Illustrator 17.0.2, SVG Export Plug-In . SVG Version: 6.00 Build 0)  -->
<!DOCTYPE svg PUBLIC "-//W3C//DTD SVG 1.1//EN" "http://www.w3.org/Graphics/SVG/1.1/DTD/svg11.dtd">
<svg version="1.1" xmlns="http://www.w3.org/2000/svg" xmlns:xlink="http://www.w3.org/1999/xlink" x="0px" y="0px" width="456px"
	 height="389.5px" viewBox="0 0 456 389.5" enable-background="new 0 0 456 389.5" xml:space="preserve">
<g id="Layer_1">
	<g id="XMLID_1_">
		<g>
			<path fill="#AAAAAA" d="M444.674,221.039c10.98,10.98,11.05,28.814,0.07,39.794c-5.525,5.525-12.728,8.253-19.932,8.253
				c-7.203,0-16.295-2.728-21.82-8.253l-10.141-8.253v134.768H280.952V247.475H169.054v139.873H57.155V252.58l-7.273,8.253
				c-10.98,10.98-28.324,10.98-39.304,0s-10.7-28.814,0.28-39.794L227.801,4.235L444.674,221.039z"/>
			<path display="none" fill="#AAAAAA" d="M228.5-123.189c189.248,0,342.689,153.441,342.689,342.689S417.748,562.189,228.5,562.189
				S-114.189,408.748-114.189,219.5S39.252-123.189,228.5-123.189z M444.744,260.833c10.98-10.98,10.91-28.814-0.07-39.794
				L227.801,4.235L10.857,221.039c-10.98,10.98-11.26,28.814-0.28,39.794s28.324,10.98,39.304,0l7.273-8.253v134.768h111.899
				V247.475h111.899v139.873h111.899V252.58l10.141,8.253c5.525,5.525,14.617,8.253,21.82,8.253
				C432.016,269.085,439.219,266.358,444.744,260.833z"/>
		</g>
		<g>
		</g>
	</g>
</g>
<g id="Layer_2">
	<rect x="324.5" y="47.5" fill="#AAAAAA" width="68" height="213"/>
</g>
</svg>
