<?xml version="1.0" encoding="utf-8"?>
<!-- Generator: Adobe Illustrator 16.0.0, SVG Export Plug-In . SVG Version: 6.00 Build 0)  -->
<!DOCTYPE svg PUBLIC "-//W3C//DTD SVG 1.1//EN" "http://www.w3.org/Graphics/SVG/1.1/DTD/svg11.dtd">
<svg version="1.1" id="Layer_1" xmlns="http://www.w3.org/2000/svg" xmlns:xlink="http://www.w3.org/1999/xlink" x="0px" y="0px"
	  viewBox="0 0 100 100" enable-background="new 0 0 100 100" xml:space="preserve">
<g>
	<path d="M50,0C22.386,0,0,22.386,0,50s22.386,50,50,50s50-22.386,50-50S77.614,0,50,0z M38,50h-4v-3h4V50z M38,44H27v-3h11V44z
		 M38,38H23v-3h15V38z M73,75.2c0,2.65-2.058,4.8-4.709,4.8H45.492C42.841,80,41,77.851,41,75.2V24.8c0-2.65,1.841-4.8,4.492-4.8
		h22.799C70.942,20,73,22.149,73,24.8V33h-3v-3H44v40h26V54h3V75.2z M79.017,44.8l1.213,0.507c0.367,0.151,0.542,0.573,0.39,0.94
		l-0.828,1.995c-0.151,0.367-0.574,0.542-0.941,0.39l-1.213-0.501c-0.399,0.532-0.882,1.016-1.423,1.425l0.501,1.208
		c0.152,0.368-0.015,0.786-0.381,0.938l-1.997,0.826c-0.367,0.153-0.779-0.025-0.932-0.392l-0.5-1.209
		c-0.672,0.093-1.354,0.091-2.014-0.002l-0.506,1.213c-0.152,0.367-0.573,0.541-0.94,0.389L67.45,51.7
		c-0.367-0.152-0.543-0.574-0.391-0.942l0.502-1.213c-0.533-0.4-1.017-0.882-1.426-1.423l-1.208,0.5
		c-0.368,0.152-0.786-0.014-0.938-0.382l-0.827-1.995c-0.152-0.368,0.025-0.782,0.394-0.933l1.208-0.5
		c-0.093-0.67-0.092-1.354,0.003-2.013l-1.214-0.505c-0.367-0.152-0.541-0.573-0.389-0.94l0.826-1.996
		c0.153-0.367,0.576-0.542,0.942-0.39l1.214,0.501c0.399-0.532,0.882-1.017,1.422-1.425l-0.5-1.208
		c-0.152-0.368,0.014-0.786,0.381-0.937l1.996-0.827c0.367-0.152,0.78,0.025,0.933,0.393l0.5,1.208
		c0.671-0.094,1.354-0.092,2.013,0.002l0.507-1.213c0.152-0.367,0.573-0.541,0.94-0.389l1.995,0.827
		c0.367,0.152,0.542,0.574,0.39,0.941l-0.501,1.214c0.532,0.399,1.017,0.882,1.425,1.422l1.209-0.5
		c0.367-0.152,0.784,0.015,0.937,0.384l0.827,1.995c0.152,0.368-0.025,0.781-0.394,0.933l-1.208,0.5
		C79.112,43.459,79.11,44.142,79.017,44.8z"/>
	<path d="M54.511,27h4.801c0.331,0,0.6-0.668,0.6-1s-0.269-1-0.6-1h-4.801c-0.331,0-0.6,0.668-0.6,1S54.18,27,54.511,27z"/>
	<circle cx="56.712" cy="74.759" r="2.4"/>
	<circle cx="71.892" cy="43.8" r="3.6"/>
</g>
</svg>
