<?xml version="1.0" encoding="utf-8"?>
<!-- Generator: Adobe Illustrator 17.0.2, SVG Export Plug-In . SVG Version: 6.00 Build 0)  -->
<!DOCTYPE svg PUBLIC "-//W3C//DTD SVG 1.1//EN" "http://www.w3.org/Graphics/SVG/1.1/DTD/svg11.dtd">
<svg version="1.1" id="Layer_1" xmlns="http://www.w3.org/2000/svg" xmlns:xlink="http://www.w3.org/1999/xlink" x="0px" y="0px"
	 width="100px" height="100px" viewBox="0 0 100 100" enable-background="new 0 0 100 100" xml:space="preserve">
<g>
	<path fill="#414142" d="M53.664,45.138v-0.155c-0.031,0.052-0.066,0.103-0.098,0.155H53.664z"/>
	<path fill="#414142" d="M91.368,0.346H8.629c-3.96,0-7.173,3.186-7.173,7.115V92.54c0,3.926,3.212,7.115,7.173,7.115h82.739
		c3.964,0,7.176-3.189,7.176-7.115V7.46C98.544,3.532,95.332,0.346,91.368,0.346z M30.884,83.477H16.219V38.636h14.665V83.477z
		 M23.553,32.511h-0.098c-4.92,0-8.101-3.444-8.101-7.748c0-4.398,3.281-7.747,8.295-7.747c5.016,0,8.104,3.349,8.202,7.747
		C31.851,29.067,28.665,32.511,23.553,32.511z M83.761,83.477H69.099V59.484c0-6.026-2.122-10.138-7.429-10.138
		c-4.05,0-6.462,2.773-7.524,5.453c-0.388,0.958-0.482,2.295-0.482,3.635v25.043H38.999c0,0,0.192-40.638,0-44.841h14.665v6.348
		c1.949-3.054,5.434-7.405,13.218-7.405c9.646,0,16.879,6.411,16.879,20.187V83.477z"/>
</g>
</svg>
