<?xml version="1.0" encoding="utf-8"?>
<!-- Generator: Adobe Illustrator 17.0.2, SVG Export Plug-In . SVG Version: 6.00 Build 0)  -->
<!DOCTYPE svg PUBLIC "-//W3C//DTD SVG 1.1//EN" "http://www.w3.org/Graphics/SVG/1.1/DTD/svg11.dtd">
<svg version="1.1" id="Layer_1" xmlns="http://www.w3.org/2000/svg" xmlns:xlink="http://www.w3.org/1999/xlink" x="0px" y="0px"
	 width="100px" height="100px" viewBox="0 0 100 100" enable-background="new 0 0 100 100" xml:space="preserve">
<path fill="#CCCCCC" d="M81.924,64.185c-4.296,0-8.182,1.607-11.239,4.182L35.14,50.605c0.032-0.339,0.097-0.662,0.097-1.001
	c0-0.347-0.065-0.671-0.097-1.009l35.545-17.778c3.057,2.576,6.944,4.198,11.239,4.198c9.677,0,17.514-7.839,17.514-17.52
	C99.438,7.839,91.601,0,81.924,0c-9.672,0-17.493,7.84-17.493,17.495c0,0.347,0.07,0.671,0.103,1.009l-35.552,17.77
	c-3.057-2.568-6.944-4.19-11.239-4.19c-9.677,0-17.514,7.84-17.514,17.52c0,9.672,7.837,17.495,17.514,17.495
	c4.296,0,8.176-1.607,11.239-4.174l35.551,17.77c-0.032,0.339-0.103,0.646-0.103,0.993c0,9.68,7.821,17.52,17.493,17.52
	c9.677,0,17.514-7.84,17.514-17.52C99.438,72.025,91.601,64.185,81.924,64.185z"/>
</svg>
