<?xml version="1.0" encoding="utf-8"?>
<!-- Generator: Adobe Illustrator 17.0.2, SVG Export Plug-In . SVG Version: 6.00 Build 0)  -->
<!DOCTYPE svg PUBLIC "-//W3C//DTD SVG 1.1//EN" "http://www.w3.org/Graphics/SVG/1.1/DTD/svg11.dtd">
<svg version="1.1" id="Layer_1" xmlns="http://www.w3.org/2000/svg" xmlns:xlink="http://www.w3.org/1999/xlink" x="0px" y="0px"
	 width="100px" height="100px" viewBox="0 0 100 100" enable-background="new 0 0 100 100" xml:space="preserve">
<path fill="#414142" d="M99.741,19.062c-3.634,1.641-7.541,2.748-11.644,3.244c4.187-2.548,7.4-6.586,8.915-11.4
	c-3.918,2.362-8.254,4.077-12.873,5.002C80.441,11.903,75.171,9.4,69.341,9.4c-11.196,0-20.273,9.226-20.273,20.606
	c0,1.615,0.179,3.187,0.525,4.695C32.744,33.843,17.805,25.64,7.806,13.172c-1.744,3.042-2.744,6.581-2.744,10.359
	c0,7.148,3.579,13.455,9.018,17.151c-3.322-0.108-6.45-1.034-9.182-2.578c-0.002,0.086-0.002,0.172-0.002,0.261
	c0,9.982,6.988,18.31,16.263,20.204c-1.701,0.47-3.493,0.723-5.342,0.723c-1.308,0-2.577-0.128-3.815-0.37
	c2.581,8.186,10.068,14.144,18.937,14.31c-6.938,5.527-15.679,8.821-25.178,8.821c-1.636,0-3.249-0.099-4.835-0.288
	c8.973,5.847,19.628,9.258,31.077,9.258c37.29,0,57.68-31.399,57.68-58.628c0-0.892-0.018-1.783-0.057-2.666
	C93.586,26.824,97.025,23.195,99.741,19.062z"/>
</svg>
